<?xml version="1.0" encoding="UTF-8" standalone="no"?>
<svg
   version="1.1"
   width="1922.8895"
   height="299.93396"
   viewBox="0 0 1922.8895 299.93396"
   xml:space="preserve"
   id="svg3"
   sodipodi:docname="divider.svg"
   inkscape:version="1.3 (0e150ed6c4, 2023-07-21)"
   xmlns:inkscape="http://www.inkscape.org/namespaces/inkscape"
   xmlns:sodipodi="http://sodipodi.sourceforge.net/DTD/sodipodi-0.dtd"
   xmlns:xlink="http://www.w3.org/1999/xlink"
   xmlns="http://www.w3.org/2000/svg"
   xmlns:svg="http://www.w3.org/2000/svg"><sodipodi:namedview
   id="namedview3"
   pagecolor="#eeeeee"
   bordercolor="#ffffff"
   borderopacity="1"
   inkscape:showpageshadow="0"
   inkscape:pageopacity="0"
   inkscape:pagecheckerboard="0"
   inkscape:deskcolor="#505050"
   inkscape:zoom="0.45354271"
   inkscape:cx="853.28237"
   inkscape:cy="653.74218"
   inkscape:window-width="1920"
   inkscape:window-height="1017"
   inkscape:window-x="-8"
   inkscape:window-y="-8"
   inkscape:window-maximized="1"
   inkscape:current-layer="svg3" />&#10;<desc
   fill="#1f1f1f"
   id="desc1">Created with Fabric.js 5.3.0</desc>&#10;<defs
   fill="#1f1f1f"
   id="defs1"><linearGradient
     id="swatch34"
     inkscape:swatch="solid"><stop
       style="stop-color:#504416;stop-opacity:1;"
       offset="0"
       id="stop34" /></linearGradient><linearGradient
     id="swatch27"
     inkscape:swatch="solid"><stop
       style="stop-color:#504416;stop-opacity:1;"
       offset="0"
       id="stop28" /></linearGradient><color-profile
     name="Agfa-:-Swop-Standard"
     xlink:href="../../../Windows/system32/spool/drivers/color/RSWOP.icm"
     id="color-profile3" /><color-profile
     name="sRGB-IEC61966-2.1"
     xlink:href="../../../Windows/system32/spool/drivers/color/sRGB%20Color%20Space%20Profile.icm"
     id="color-profile4" /></defs>&#10;<g
   id="g39"
   inkscape:label="not combined"
   style="display:none"
   transform="translate(3.4705329,-980.32019)"><path
     style="mix-blend-mode:normal;fill:#373737;fill-opacity:1;fill-rule:nonzero;stroke:#1f1f1f;stroke-width:3;stroke-linecap:butt;stroke-linejoin:round;stroke-miterlimit:4;stroke-dasharray:none;stroke-dashoffset:0;stroke-opacity:1"
     d="m 498.44546,-41.20377 c 0,0 -138.73588,41.23337 -302.33985,286.09642 C 137.75842,332.21981 63.36306,472.97367 -0.5,648.93682 L 1,1114.8159 c 66.23377,-2.5974 119.68721,-14.2857 197.60928,-49.3506 77.92208,-35.065 163.63636,-80.51953 359.74026,-98.70135 196.1039,-18.18182 250.64935,-61.03896 268.83117,-76.62338 18.18182,-15.58442 40.25974,-71.42857 174.02599,-71.42857 133.7662,0 245.4545,14.28571 520.7792,153.24675 275.3247,138.96105 487.7758,103.89615 487.7758,103.89615 l 0.7915,-1118.14292 z"
     stroke-linecap="round"
     id="path3"
     sodipodi:nodetypes="csccsssssccc" /><path
     style="fill:#ffffff;fill-opacity:0;fill-rule:evenodd;stroke:#1f1f1f;stroke-width:3.10344;stroke-linecap:butt;stroke-linejoin:miter;stroke-miterlimit:4;stroke-dasharray:none;stroke-dashoffset:0"
     d="m 1047.7297,317.68868 c -78.53842,17.64551 -95.08946,24.86849 -113.42015,29.60919 -103.44796,27.40929 -191.86503,60.1236 -228.11602,100.79545 -35.36682,34.48265 -97.25876,221.92681 -72.50199,261.71449 24.75678,38.90351 145.88815,21.2201 398.76096,-110.52133 263.6178,-148.06599 313.8805,-239.33567 308.5755,-264.36701 -4.2161,-13.60227 -0.8841,-27.40929 -81.3437,-37.13517 -88.0592,-8.52187 -133.4161,2.25886 -211.9546,19.90437 z"
     stroke-linecap="round"
     id="path1" /></g>&#10;&#10;&#10;<path
   id="path38"
   style="fill:#373737;fill-opacity:1;fill-rule:evenodd;stroke:#373737;stroke-width:3.10344;stroke-linecap:butt;stroke-linejoin:miter;stroke-miterlimit:4;stroke-dasharray:none;stroke-dashoffset:0;stroke-opacity:1"
   d="M 0.06080489,297.65561 C 66.294575,295.05821 119.74801,283.36991 197.67008,248.30501 c 77.92208,-35.065 163.63636,-80.5195 359.74026,-98.7013 196.1039,-18.1818 250.64935,-61.039 268.83117,-76.6234 18.18182,-15.5844 40.25974,-71.4285604 174.02599,-71.4285604 133.7662,0 245.4545,14.2857104 520.7792,153.2467604 275.3247,138.961 401.7861,143.5837 401.7861,143.5837 z"
   sodipodi:nodetypes="cssssscc" /></svg>
